<svg xmlns="http://www.w3.org/2000/svg" width="120" height="30" viewBox="0 0 276.79 55.71"><title>talentize</title><path d="M193.78,12a5,5,0,0,0,3.68-1.52A5,5,0,0,0,199,6.79a5,5,0,0,0-1.53-3.68,5.19,5.19,0,0,0-7.36,0,5,5,0,0,0-1.53,3.68,5,5,0,0,0,1.53,3.68A5.05,5.05,0,0,0,193.78,12Z" transform="translate(-0.21)" fill="#4d4d4d"/><path d="M99.53,15.76A18.36,18.36,0,0,0,86.05,21.4Q80.44,27,80.43,36.12T85.55,50.5q5.11,5.16,13.91,5.15c6.27,0,13.19-2.46,16.35-5l-3.48-6.86c-2.13,2.14-7.45,4.38-11.54,4.38A11.46,11.46,0,0,1,93,45.6a9.79,9.79,0,0,1-3.16-7.14h27.47a24.67,24.67,0,0,0,.76-5A17.09,17.09,0,0,0,113,20.75Q107.91,15.77,99.53,15.76ZM90.13,31.7q1.86-8.43,9.55-8.43,8.4,0,9.33,8.43Z" transform="translate(-0.21)" fill="#4d4d4d"/><path d="M277,33.46a17.12,17.12,0,0,0-5.06-12.71q-5.07-5-13.43-5A18.34,18.34,0,0,0,245,21.4q-5.62,5.64-5.62,14.72t5.11,14.38q5.11,5.16,13.92,5.15c6.27,0,13.19-2.46,16.35-5l-3.49-6.86c-2.13,2.14-7.44,4.38-11.54,4.38a11.45,11.45,0,0,1-7.82-2.55,9.75,9.75,0,0,1-3.16-7.14h27.47A25.22,25.22,0,0,0,277,33.46ZM249.1,31.7q1.88-8.43,9.55-8.43,8.4,0,9.34,8.43Z" transform="translate(-0.21)" fill="#4d4d4d"/><path d="M140.45,15.76q-7.14,0-10.8,4.31L128,16.48h-6.46V54.94h9V27.15a10.78,10.78,0,0,1,7.72-3.88q4.28,0,6.16,2.26t1.88,7.18V54.94h9V31.35q0-7.37-4-11.48C148.63,17.13,145,15.76,140.45,15.76Z" transform="translate(-0.21)" fill="#4d4d4d"/><polygon points="236.25 19.64 236.25 16.48 202.64 16.48 202.64 24.31 223.14 24.31 202.28 51.88 202.28 54.94 236.46 54.94 236.46 47.11 216.14 47.11 236.25 19.64" fill="#4d4d4d"/><polygon points="66.27 38.7 66.27 47.18 66.27 55.65 72.37 55.65 75.25 55.65 75.25 55.24 75.25 43.23 75.25 38.7 75.25 0 66.27 2.15 66.27 38.7" fill="#4d4d4d"/><path d="M58.92,34.94q0-11.17-4.09-15.17t-12.9-4a25.14,25.14,0,0,0-11,2.23l1.94,7a19.08,19.08,0,0,1,8.47-1.68q8.59,0,8.59,6.78a15.77,15.77,0,0,0-3.74-.54q-9.22,0-14.23,3.77a12.36,12.36,0,0,0-5,10.45q0,5.72,3.55,8.82t9.77,3.1a16.15,16.15,0,0,0,6.33-1.27A10.14,10.14,0,0,0,50,52.19v3.46h6.34A9.89,9.89,0,0,0,59,55.59V38.69h0ZM50,38.69v1.74q0,8.09-8.08,8.08-6,0-6-5.17,0-7,10.63-7a19.22,19.22,0,0,1,3.45.47Z" transform="translate(-0.21)" fill="#4d4d4d"/><path d="M13.64,5.35l-9,3.3v7.83H.21V23.7H4.66V43.16q0,6,3.09,9.24t8.83,3.25c1.2,0,4.81,0,5.84-.1V48.06l-3,0q-3.24,0-4.53-1.71c-.86-1.13-1.29-3.08-1.29-5.83V23.7H24.2V16.48H13.64Z" transform="translate(-0.21)" fill="#4d4d4d"/><path d="M171.19,16.48V5.35l-9,3.3v7.83h-4.46V23.7h4.46V43.16q0,6,3.08,9.24t8.84,3.25c1.19,0,4.8,0,5.83-.1V48.06l-3,0c-2.16,0-3.66-.57-4.53-1.71s-1.29-3.08-1.29-5.83V23.84h18v31.1h9.08V16.48Z" transform="translate(-0.21)" fill="#4d4d4d"/></svg>