<svg xmlns="http://www.w3.org/2000/svg" xmlns:xlink="http://www.w3.org/1999/xlink" x="0px" y="0px"
	 viewBox="0 0 5184 1728" xml:space="preserve">
<path fill="#FFFFFF" d="M3492.5,570.8c22.9,0,42.4-8.1,58.7-24.3c16.2-16.2,24.3-35.8,24.3-58.7c0-22.9-8.1-42.4-24.3-58.7
	c-16.2-16.2-35.8-24.3-58.7-24.3c-22.9,0-42.5,8.1-58.7,24.3c-16.2,16.2-24.3,35.8-24.3,58.7c0,22.9,8.1,42.5,24.3,58.7
	C3450.1,562.7,3469.6,570.8,3492.5,570.8z"/>
<g>
	<path fill="#FFFFFF" d="M1989.9,630.9c-83.6,0-155.2,30-215,89.9c-59.7,59.9-89.6,138.2-89.6,234.7c0,98.1,27.2,174.5,81.6,229.3
		c54.4,54.8,128.3,82.1,221.8,82.1c100,0,210.3-39.2,260.7-80.1l-55.5-109.3c-34,34-118.7,69.8-183.9,69.8
		c-52.3,0-93.9-13.5-124.8-40.6c-30.9-27.1-47.7-65.1-50.4-113.9h437.9c8-35.5,12-62,12-79.6c0-82.1-26.9-149.6-80.7-202.7
		C2150.2,657.4,2078.8,630.9,1989.9,630.9z M1839.9,885.1c19.8-89.7,70.6-134.5,152.3-134.5c89.3,0,138.9,44.8,148.8,134.5H1839.9z"
		/>
	<path fill="#FFFFFF" d="M4819.3,913.1c0-82.1-26.9-149.6-80.7-202.7c-53.8-53-125.2-79.6-214.1-79.6c-83.6,0-155.2,30-215,89.9
		c-59.7,59.9-89.6,138.2-89.6,234.7c0,98.1,27.2,174.5,81.6,229.3c54.4,54.8,128.3,82.1,221.8,82.1c100,0,210.3-39.2,260.7-80.1
		l-55.5-109.3c-34,34-118.7,69.8-183.9,69.8c-52.3,0-93.9-13.5-124.8-40.6c-30.9-27.1-47.7-65.1-50.4-113.9h437.9
		C4815.3,957.2,4819.3,930.7,4819.3,913.1z M4374.5,885.1c19.8-89.7,70.6-134.5,152.3-134.5c89.3,0,138.9,44.8,148.8,134.5H4374.5z"
		/>
	<path fill="#FFFFFF" d="M2642.3,630.9c-75.9,0-133.4,22.9-172.3,68.7l-26.3-57.2h-103v613.1h143.1V812.4
		c13.4-17.6,32-32.2,55.8-44.1c23.8-11.8,46.3-17.8,67.3-17.8c45.4,0,78.1,12,98.2,36.1c20,24,30.1,62.2,30.1,114.5v354.4h143.1
		V879.4c0-78.2-21.1-139.2-63.3-182.9C2772.7,652.8,2715.2,630.9,2642.3,630.9z"/>
	<polygon fill="#FFFFFF" points="4173,692.7 4173,642.4 3637.1,642.4 3637.1,767.2 3964,767.2 3631.4,1206.8 3631.4,1255.5 
		4176.4,1255.5 4176.4,1130.7 3852.4,1130.7 	"/>
	<polygon fill="#FFFFFF" points="1462.9,996.5 1462.9,1131.8 1462.9,1266.9 1560.2,1266.9 1606,1266.9 1606,1260.4 1606,1068.8 
		1606,996.5 1606,379.6 1462.9,413.9 	"/>
	<path fill="#FFFFFF" d="M1342.3,936.6c0-118.7-21.8-199.3-65.3-241.9c-43.5-42.5-112-63.8-205.5-63.8
		c-67.9,0-126.5,11.8-175.7,35.5l30.9,111.1c36.3-17.9,81.3-26.9,135.1-26.9c91.2,0,136.8,36.1,136.8,108.2
		c-22.9-5.7-42.7-8.6-59.5-8.6c-98.1,0-173.7,20-227,60.1c-53.2,40.1-79.9,95.6-79.9,166.6c0,60.7,18.9,107.5,56.7,140.5
		c37.8,33,89.7,49.5,155.7,49.5c35.1,0,68.8-6.8,101-20.3c22.9-9.6,40.9-21.3,54.1-34.9v55.2h97.3c1.3,0,2.5-0.1,3.8-0.1
		c15.4-0.3,29.3,3.1,42-0.8v-176.6v-20.5v-72.3h-0.6V936.6z M1199.8,996.5v27.7c0,85.9-42.9,128.8-128.8,128.8
		c-63.7,0-95.6-27.5-95.6-82.4c0-74,56.5-111.1,169.5-111.1c12.2,0,30.5,2.5,55,7.4V996.5z"/>
	<path fill="#FFFFFF" d="M620.4,464.9l-143.1,52.7v124.8h-71v115.1h71v310.3c0,63.7,16.4,112.9,49.2,147.4
		c32.8,34.5,79.8,51.8,140.8,51.8c19,0,76.7-0.6,93-1.7v-119.3c-2.3,0.1-44.8,0.2-47.2,0.2c-34.4,0-58.4-9.1-72.1-27.2
		c-13.7-18.1-20.6-49.1-20.6-93V757.4h168.3V642.4H620.4V464.9z"/>
	<path fill="#FFFFFF" d="M3132.4,642.4V464.9l-143.1,52.7v124.8h-71v115.1h71v310.3c0,63.7,16.4,112.9,49.2,147.4
		c32.8,34.5,79.8,51.8,140.8,51.8c19,0,76.7-0.6,93-1.7v-119.3c-2.3,0.1-44.8,0.2-47.2,0.2c-34.4,0-58.4-9.1-72.1-27.2
		c-13.7-18.1-20.6-49.1-20.6-93V759.7h286.3v495.8h144.8V759.7V642.4H3132.4z"/>
</g>
</svg>
